<svg width="282" height="82" viewBox="0 0 282 82" fill="none" xmlns="http://www.w3.org/2000/svg">
<path d="M4.5743 25.299C4.68733 27.3424 5.14608 28.9997 5.96386 30.271C7.51963 32.6538 10.2588 33.8451 14.1882 33.8451C15.95 33.8451 17.5524 33.5856 18.9951 33.0598C21.7942 32.0481 23.1904 30.2377 23.1904 27.6219C23.1904 25.6651 22.5986 24.2674 21.4152 23.4354C20.2118 22.6167 18.3369 21.9112 15.7772 21.3055L11.0633 20.2007C7.98503 19.4818 5.80429 18.6898 4.52111 17.8245C2.30713 16.3203 1.20347 14.0773 1.20347 11.0888C1.20347 7.85408 2.28719 5.20505 4.46793 3.12843C6.63537 1.05846 9.71366 0.0268035 13.6962 0.0268035C17.3595 0.0268035 20.4777 0.938654 23.0374 2.7557C25.5971 4.5794 26.8803 7.488 26.8803 11.4882H22.3061C22.0734 9.56463 21.5681 8.08703 20.8035 7.05537C19.3807 5.17843 16.9673 4.23995 13.5565 4.23995C10.804 4.23995 8.8294 4.84563 7.62601 6.05034C6.42261 7.25505 5.81759 8.65943 5.81759 10.2635C5.81759 12.0273 6.52899 13.3185 7.95179 14.1305C8.88259 14.6563 10.9968 15.3086 14.2812 16.0874L19.1613 17.2388C21.5149 17.7913 23.33 18.55 24.6132 19.5151C26.8271 21.199 27.9308 23.6351 27.9308 26.8365C27.9308 30.8234 26.5213 33.6721 23.6957 35.3826C20.87 37.0932 17.5922 37.9518 13.8557 37.9518C9.49426 37.9518 6.08353 36.807 3.62355 34.524C1.16358 32.2611 -0.046468 29.1861 7.21208e-05 25.299H4.5743ZM58.9332 0.931998V5.21836H46.8261V36.9068H41.9061V5.21836H29.7991V0.931998H58.9332ZM68.1415 0.931998H73.6465L86.6844 36.9068H81.3522L77.7088 26.131H63.4941L59.6047 36.9068H54.6116L68.1415 0.931998ZM76.1464 22.1641L70.6879 6.26998L64.8903 22.1641H76.1464ZM89.2574 0.931998L99.5827 31.5688L109.782 0.931998H115.24L102.129 36.9068H96.9698L83.8721 0.931998H89.2508H89.2574ZM124.555 0.931998H130.06L143.098 36.9068H137.766L134.122 26.131H119.907L116.018 36.9068H111.025L124.555 0.931998ZM132.553 22.1641L127.095 6.26998L121.297 22.1641H132.553ZM146.522 0.931998H152.253L170.171 29.9981V0.931998H174.818V36.9068H169.346L151.162 7.87404V36.9068H146.515V0.931998H146.522ZM205.621 1.957C209.138 3.83395 211.292 7.12193 212.083 11.8276H207.263C206.691 9.19856 205.501 7.28167 203.693 6.08362C201.891 4.88557 199.611 4.28654 196.865 4.28654C193.607 4.28654 190.861 5.53784 188.634 8.03378C186.407 10.5297 185.29 14.2503 185.29 19.2023C185.29 23.482 186.207 26.963 188.049 29.6453C189.884 32.3343 192.882 33.6721 197.038 33.6721C200.216 33.6721 202.849 32.727 204.936 30.8434C207.024 28.9598 208.088 25.9114 208.141 21.6982H196.891V17.6581H212.669V36.9068H209.537L208.36 32.281C206.738 34.0914 205.302 35.3494 204.052 36.0549C201.951 37.2663 199.278 37.8653 196.04 37.8653C191.852 37.8653 188.248 36.4875 185.236 33.7253C181.945 30.2643 180.303 25.512 180.303 19.4752C180.303 13.4383 181.912 8.65943 185.123 5.09856C188.175 1.70408 192.131 0.00683594 196.985 0.00683594C200.309 0.00683594 203.188 0.659109 205.614 1.96365L205.621 1.957ZM220.135 0.931998H246.211V5.33817H224.882V16.2604H244.602V20.4203H224.882V32.6138H246.583V36.9002H220.142V0.931998H220.135ZM252.666 0.931998H269.002C271.695 0.931998 273.909 1.33135 275.657 2.13005C278.975 3.66755 280.63 6.49628 280.63 10.6296C280.63 12.7861 280.185 14.5499 279.294 15.921C278.403 17.2921 277.16 18.3969 275.564 19.2289C276.967 19.8013 278.024 20.5534 278.729 21.4786C279.434 22.4038 279.833 23.9213 279.912 26.0112L280.085 30.8367C280.132 32.2078 280.251 33.2262 280.424 33.8984C280.717 35.0432 281.242 35.7753 281.993 36.1015V36.9068H276.023C275.857 36.594 275.73 36.1947 275.631 35.7088C275.531 35.2163 275.451 34.2711 275.385 32.8667L275.092 26.8698C274.979 24.5203 274.135 22.9429 272.546 22.1442C271.642 21.7049 270.225 21.4852 268.291 21.4852H257.527V36.9135H252.66V0.931998H252.666ZM268.477 17.4119C270.697 17.4119 272.453 16.9526 273.743 16.0408C275.032 15.1289 275.684 13.4783 275.684 11.0955C275.684 8.53297 274.78 6.78249 272.971 5.85732C272.001 5.36479 270.711 5.12518 269.095 5.12518H257.533V17.4185H268.477V17.4119ZM4.5743 69.3341C4.68733 71.3774 5.14608 73.0348 5.96386 74.306C7.51963 76.6888 10.2588 77.8802 14.1882 77.8802C15.95 77.8802 17.5524 77.6206 18.9951 77.0948C21.7942 76.0831 23.1904 74.2727 23.1904 71.657C23.1904 69.7002 22.5986 68.3025 21.4152 67.4705C20.2118 66.6518 18.3369 65.9463 15.7772 65.3406L11.0633 64.2357C7.98503 63.5169 5.80429 62.7249 4.52111 61.8596C2.30713 60.3554 1.20347 58.1124 1.20347 55.1239C1.20347 51.8891 2.28719 49.2401 4.46793 47.1635C6.64201 45.0935 9.72031 44.0552 13.7028 44.0552C17.3662 44.0552 20.4844 44.9671 23.0441 46.7841C25.6038 48.6078 26.887 51.5164 26.887 55.5166H22.3127C22.08 53.593 21.5747 52.1154 20.8102 51.0838C19.3874 49.2068 16.9739 48.2684 13.5632 48.2684C10.8107 48.2684 8.83605 48.874 7.63265 50.0787C6.42926 51.2835 5.82424 52.6878 5.82424 54.2919C5.82424 56.0557 6.53564 57.3469 7.95844 58.1589C8.88924 58.6848 11.0035 59.337 14.2879 60.1158L19.168 61.2672C21.5216 61.8197 23.3366 62.5784 24.6198 63.5435C26.8338 65.2274 27.9375 67.6635 27.9375 70.865C27.9375 74.8518 26.528 77.7005 23.7023 79.411C20.8766 81.1216 17.5989 81.9802 13.8624 81.9802C9.50091 81.9802 6.09018 80.8354 3.6302 78.5524C1.16358 76.3028 -0.046468 73.2211 7.21208e-05 69.3341H4.5743ZM34.2736 44.9671H60.3493V49.3732H39.0207V60.2955H58.7404V64.4554H39.0207V76.6489H60.7217V80.9352H34.2802V44.9604L34.2736 44.9671ZM92.6415 47.5895C95.1215 49.9922 96.5044 52.7145 96.777 55.7695H92.0299C91.5046 53.4533 90.4475 51.6162 88.8718 50.2585C87.2961 48.9007 85.0821 48.2284 82.2299 48.2284C78.7526 48.2284 75.9469 49.4731 73.8061 51.969C71.6652 54.4583 70.6015 58.2787 70.6015 63.4237C70.6015 67.6369 71.5655 71.058 73.5003 73.6804C75.4283 76.3028 78.3072 77.614 82.1368 77.614C85.6605 77.614 88.3465 76.2362 90.1882 73.474C91.1655 72.0231 91.8969 70.1128 92.3756 67.7434H97.1227C96.7038 71.5305 95.3143 74.7054 92.9607 77.2679C90.1417 80.3562 86.332 81.8937 81.545 81.8937C77.4163 81.8937 73.9524 80.6291 71.1466 78.0932C67.4567 74.7453 65.6084 69.5737 65.6084 62.5784C65.6084 57.2671 66.9913 52.9141 69.7637 49.5197C72.7623 45.8257 76.8977 43.982 82.17 43.982C86.6645 43.982 90.155 45.18 92.6415 47.5828V47.5895ZM102.867 44.9671H128.943V49.3732H107.614V60.2955H127.334V64.4554H107.614V76.6489H129.315V80.9352H102.874V44.9604L102.867 44.9671ZM137.998 69.3341C138.111 71.3774 138.57 73.0348 139.388 74.306C140.944 76.6888 143.683 77.8802 147.612 77.8802C149.374 77.8802 150.976 77.6206 152.419 77.0948C155.218 76.0831 156.614 74.2727 156.614 71.657C156.614 69.7002 156.023 68.3025 154.839 67.4705C153.636 66.6518 151.761 65.9463 149.201 65.3406L144.487 64.2357C141.409 63.5169 139.228 62.7249 137.945 61.8596C135.731 60.3554 134.627 58.1124 134.627 55.1239C134.627 51.8891 135.711 49.2401 137.892 47.1635C140.066 45.0935 143.144 44.0552 147.127 44.0552C150.79 44.0552 153.908 44.9671 156.468 46.7841C159.028 48.6078 160.311 51.5164 160.311 55.5166H155.737C155.504 53.593 154.999 52.1154 154.234 51.0838C152.811 49.2068 150.398 48.2684 146.987 48.2684C144.235 48.2684 142.26 48.874 141.057 50.0787C139.853 51.2835 139.248 52.6878 139.248 54.2919C139.248 56.0557 139.96 57.3469 141.382 58.1589C142.313 58.6848 144.427 59.337 147.712 60.1158L152.592 61.2672C154.945 61.8197 156.761 62.5784 158.044 63.5435C160.258 65.2274 161.361 67.6635 161.361 70.865C161.361 74.8518 159.952 77.7005 157.126 79.411C154.301 81.1216 151.023 81.9802 147.286 81.9802C142.925 81.9802 139.514 80.8354 137.054 78.5524C134.587 76.2828 133.377 73.2078 133.431 69.3208H138.005L137.998 69.3341ZM170.41 69.3341C170.523 71.3774 170.982 73.0348 171.8 74.306C173.355 76.6888 176.095 77.8802 180.024 77.8802C181.786 77.8802 183.388 77.6206 184.831 77.0948C187.63 76.0831 189.026 74.2727 189.026 71.657C189.026 69.7002 188.434 68.3025 187.251 67.4705C186.048 66.6518 184.173 65.9463 181.613 65.3406L176.899 64.2357C173.821 63.5169 171.64 62.7249 170.357 61.8596C168.143 60.3554 167.039 58.1124 167.039 55.1239C167.039 51.8891 168.123 49.2401 170.304 47.1635C172.478 45.0935 175.556 44.0552 179.539 44.0552C183.202 44.0552 186.32 44.9671 188.88 46.7841C191.44 48.6078 192.723 51.5164 192.723 55.5166H188.149C187.916 53.593 187.411 52.1154 186.646 51.0838C185.223 49.2068 182.81 48.2684 179.399 48.2684C176.646 48.2684 174.672 48.874 173.468 50.0787C172.265 51.2835 171.66 52.6878 171.66 54.2919C171.66 56.0557 172.371 57.3469 173.794 58.1589C174.725 58.6848 176.839 59.337 180.124 60.1158L185.004 61.2672C187.357 61.8197 189.172 62.5784 190.456 63.5435C192.67 65.2274 193.773 67.6635 193.773 70.865C193.773 74.8518 192.364 77.7005 189.538 79.411C186.712 81.1216 183.435 81.9802 179.698 81.9802C175.337 81.9802 171.926 80.8354 169.466 78.5524C166.999 76.2828 165.789 73.2078 165.843 69.3208H170.417L170.41 69.3341ZM200.748 44.9671H205.668V80.9419H200.748V44.9671ZM243.166 50.112C245.546 53.2935 246.736 57.3669 246.736 62.3322C246.736 67.7034 245.373 72.1695 242.654 75.7304C239.456 79.9102 234.901 82.0002 228.978 82.0002C223.446 82.0002 219.104 80.1698 215.94 76.5158C213.121 72.9882 211.705 68.5287 211.705 63.1442C211.705 58.2787 212.915 54.1188 215.328 50.6578C218.426 46.2184 223.007 43.9953 229.077 43.9953C235.147 43.9953 240.121 46.0387 243.166 50.1187V50.112ZM238.871 73.0414C240.785 69.9598 241.743 66.4188 241.743 62.4187C241.743 58.1856 240.639 54.7778 238.425 52.1953C236.218 49.6128 233.193 48.3216 229.363 48.3216C225.534 48.3216 222.615 49.5995 220.261 52.1554C217.914 54.7112 216.737 58.4851 216.737 63.4636C216.737 67.4505 217.741 70.8117 219.756 73.5473C221.77 76.2828 225.035 77.6539 229.556 77.6539C234.077 77.6539 236.949 76.1164 238.864 73.0348L238.871 73.0414ZM252.534 44.9671H258.265L276.183 74.0331V44.9671H280.83V80.9419H275.358L257.174 51.9091V80.9419H252.527V44.9671H252.534Z" fill="#231F20"/>
</svg>
